<svg width="120" height="120" viewBox="0 0 120 120" fill="none" xmlns="http://www.w3.org/2000/svg">
<g clip-path="url(#clip0_11_21)">
<rect width="120" height="120" rx="20" fill="#393939"/>
<g filter="url(#filter0_dd_11_21)">
<path d="M62.2473 22.4C68.4473 22.4 73.8806 22.9333 78.5473 24C83.2806 25.0667 87.3473 26.5333 90.7473 28.4C94.2139 30.2667 97.0806 32.4333 99.3473 34.9C101.614 37.3 103.414 39.8667 104.747 42.6C106.147 45.2667 107.114 48.0333 107.647 50.9C108.247 53.7667 108.547 56.5 108.547 59.1V62.1C108.547 66.0333 107.881 70.1667 106.547 74.5C105.214 78.8333 102.814 82.8333 99.3473 86.5C95.9473 90.1667 91.2473 93.2 85.2473 95.6C79.2473 98 71.5806 99.2 62.2473 99.2H57.7473C51.5473 99.2 46.0806 98.6667 41.3473 97.6C36.6806 96.4667 32.6139 94.9667 29.1473 93.1C25.7473 91.1667 22.9139 88.9667 20.6473 86.5C18.3806 84.0333 16.5473 81.4333 15.1473 78.7C13.8139 75.9 12.8473 73.1 12.2473 70.3C11.7139 67.4333 11.4473 64.7 11.4473 62.1V59.1C11.4473 56.4333 11.7139 53.7 12.2473 50.9C12.8473 48.0333 13.8139 45.2667 15.1473 42.6C16.5473 39.8667 18.3806 37.3 20.6473 34.9C22.9139 32.4333 25.7473 30.2667 29.1473 28.4C32.6139 26.5333 36.6806 25.0667 41.3473 24C46.0806 22.9333 51.5473 22.4 57.7473 22.4H62.2473ZM83.6473 59.9C83.6473 57.9 83.3473 55.8 82.7473 53.6C82.1473 51.3333 80.9806 49.2667 79.2473 47.4C77.5806 45.5333 75.1806 44 72.0473 42.8C68.9806 41.6 64.9806 41 60.0473 41C55.0473 41 51.0139 41.6 47.9473 42.8C44.8806 44 42.4806 45.5333 40.7473 47.4C39.0139 49.2667 37.8473 51.3333 37.2473 53.6C36.6473 55.8 36.3473 57.9 36.3473 59.9V61.2C36.3473 63.2 36.6473 65.3333 37.2473 67.6C37.9139 69.8667 39.1139 71.9667 40.8473 73.9C42.6473 75.7667 45.0806 77.3333 48.1473 78.6C51.2139 79.8 55.1806 80.4 60.0473 80.4C64.9806 80.4 68.9806 79.8 72.0473 78.6C75.1806 77.3333 77.5806 75.7667 79.2473 73.9C80.9806 71.9667 82.1473 69.8667 82.7473 67.6C83.3473 65.3333 83.6473 63.2 83.6473 61.2V59.9Z" fill="url(#paint0_linear_11_21)"/>
</g>
<g filter="url(#filter1_dd_11_21)">
<path d="M94.6957 37.8V65.3H117.196V75H82.7457V37.8H94.6957Z" fill="url(#paint1_linear_11_21)"/>
</g>
</g>
<defs>
<filter id="filter0_dd_11_21" x="7.44727" y="22.4" width="105.1" height="84.8" filterUnits="userSpaceOnUse" color-interpolation-filters="sRGB">
<feFlood flood-opacity="0" result="BackgroundImageFix"/>
<feColorMatrix in="SourceAlpha" type="matrix" values="0 0 0 0 0 0 0 0 0 0 0 0 0 0 0 0 0 0 127 0" result="hardAlpha"/>
<feOffset dy="4"/>
<feGaussianBlur stdDeviation="2"/>
<feComposite in2="hardAlpha" operator="out"/>
<feColorMatrix type="matrix" values="0 0 0 0 0 0 0 0 0 0 0 0 0 0 0 0 0 0 0.25 0"/>
<feBlend mode="normal" in2="BackgroundImageFix" result="effect1_dropShadow_11_21"/>
<feColorMatrix in="SourceAlpha" type="matrix" values="0 0 0 0 0 0 0 0 0 0 0 0 0 0 0 0 0 0 127 0" result="hardAlpha"/>
<feOffset dy="4"/>
<feGaussianBlur stdDeviation="2"/>
<feComposite in2="hardAlpha" operator="out"/>
<feColorMatrix type="matrix" values="0 0 0 0 0 0 0 0 0 0 0 0 0 0 0 0 0 0 0.25 0"/>
<feBlend mode="normal" in2="effect1_dropShadow_11_21" result="effect2_dropShadow_11_21"/>
<feBlend mode="normal" in="SourceGraphic" in2="effect2_dropShadow_11_21" result="shape"/>
</filter>
<filter id="filter1_dd_11_21" x="78.7457" y="37.8" width="42.45" height="45.2" filterUnits="userSpaceOnUse" color-interpolation-filters="sRGB">
<feFlood flood-opacity="0" result="BackgroundImageFix"/>
<feColorMatrix in="SourceAlpha" type="matrix" values="0 0 0 0 0 0 0 0 0 0 0 0 0 0 0 0 0 0 127 0" result="hardAlpha"/>
<feOffset dy="4"/>
<feGaussianBlur stdDeviation="2"/>
<feComposite in2="hardAlpha" operator="out"/>
<feColorMatrix type="matrix" values="0 0 0 0 0 0 0 0 0 0 0 0 0 0 0 0 0 0 0.25 0"/>
<feBlend mode="normal" in2="BackgroundImageFix" result="effect1_dropShadow_11_21"/>
<feColorMatrix in="SourceAlpha" type="matrix" values="0 0 0 0 0 0 0 0 0 0 0 0 0 0 0 0 0 0 127 0" result="hardAlpha"/>
<feOffset dy="4"/>
<feGaussianBlur stdDeviation="2"/>
<feComposite in2="hardAlpha" operator="out"/>
<feColorMatrix type="matrix" values="0 0 0 0 0 0 0 0 0 0 0 0 0 0 0 0 0 0 0.25 0"/>
<feBlend mode="normal" in2="effect1_dropShadow_11_21" result="effect2_dropShadow_11_21"/>
<feBlend mode="normal" in="SourceGraphic" in2="effect2_dropShadow_11_21" result="shape"/>
</filter>
<linearGradient id="paint0_linear_11_21" x1="60" y1="-33" x2="60" y2="167" gradientUnits="userSpaceOnUse">
<stop stop-color="white"/>
<stop offset="0.505208" stop-color="#E13DFC"/>
</linearGradient>
<linearGradient id="paint1_linear_11_21" x1="99" y1="-40" x2="99" y2="160" gradientUnits="userSpaceOnUse">
<stop stop-color="white"/>
<stop offset="0.505208" stop-color="#F9D6FF"/>
</linearGradient>
<clipPath id="clip0_11_21">
<rect width="120" height="120" fill="white"/>
</clipPath>
</defs>
</svg>
