<svg width="200" height="200" viewBox="0 0 200 200" fill="none" xmlns="http://www.w3.org/2000/svg">
<g clip-path="url(#clip0_5_4)">
<rect x="40" y="33" width="120" height="120" rx="20" fill="white"/>
<g filter="url(#filter0_d_5_4)">
<path d="M102.247 55.4C108.447 55.4 113.881 55.9333 118.547 57C123.281 58.0667 127.347 59.5333 130.747 61.4C134.214 63.2667 137.081 65.4333 139.347 67.9C141.614 70.3 143.414 72.8667 144.747 75.6C146.147 78.2667 147.114 81.0333 147.647 83.9C148.247 86.7667 148.547 89.5 148.547 92.1V95.1C148.547 99.0333 147.881 103.167 146.547 107.5C145.214 111.833 142.814 115.833 139.347 119.5C135.947 123.167 131.247 126.2 125.247 128.6C119.247 131 111.581 132.2 102.247 132.2H97.7473C91.5473 132.2 86.0806 131.667 81.3473 130.6C76.6806 129.467 72.6139 127.967 69.1473 126.1C65.7473 124.167 62.9139 121.967 60.6473 119.5C58.3806 117.033 56.5473 114.433 55.1473 111.7C53.8139 108.9 52.8473 106.1 52.2473 103.3C51.7139 100.433 51.4473 97.7 51.4473 95.1V92.1C51.4473 89.4333 51.7139 86.7 52.2473 83.9C52.8473 81.0333 53.8139 78.2667 55.1473 75.6C56.5473 72.8667 58.3806 70.3 60.6473 67.9C62.9139 65.4333 65.7473 63.2667 69.1473 61.4C72.6139 59.5333 76.6806 58.0667 81.3473 57C86.0806 55.9333 91.5473 55.4 97.7473 55.4H102.247ZM123.647 92.9C123.647 90.9 123.347 88.8 122.747 86.6C122.147 84.3333 120.981 82.2667 119.247 80.4C117.581 78.5333 115.181 77 112.047 75.8C108.981 74.6 104.981 74 100.047 74C95.0473 74 91.0139 74.6 87.9473 75.8C84.8806 77 82.4806 78.5333 80.7473 80.4C79.0139 82.2667 77.8473 84.3333 77.2473 86.6C76.6473 88.8 76.3473 90.9 76.3473 92.9V94.2C76.3473 96.2 76.6473 98.3333 77.2473 100.6C77.9139 102.867 79.1139 104.967 80.8473 106.9C82.6473 108.767 85.0806 110.333 88.1473 111.6C91.2139 112.8 95.1806 113.4 100.047 113.4C104.981 113.4 108.981 112.8 112.047 111.6C115.181 110.333 117.581 108.767 119.247 106.9C120.981 104.967 122.147 102.867 122.747 100.6C123.347 98.3333 123.647 96.2 123.647 94.2V92.9Z" fill="url(#paint0_linear_5_4)"/>
</g>
</g>
<defs>
<filter id="filter0_d_5_4" x="51.4473" y="54.4" width="107.1" height="86.8" filterUnits="userSpaceOnUse" color-interpolation-filters="sRGB">
<feFlood flood-opacity="0" result="BackgroundImageFix"/>
<feColorMatrix in="SourceAlpha" type="matrix" values="0 0 0 0 0 0 0 0 0 0 0 0 0 0 0 0 0 0 127 0" result="hardAlpha"/>
<feOffset dx="5" dy="4"/>
<feGaussianBlur stdDeviation="2.5"/>
<feComposite in2="hardAlpha" operator="out"/>
<feColorMatrix type="matrix" values="0 0 0 0 0 0 0 0 0 0 0 0 0 0 0 0 0 0 0.25 0"/>
<feBlend mode="normal" in2="BackgroundImageFix" result="effect1_dropShadow_5_4"/>
<feBlend mode="normal" in="SourceGraphic" in2="effect1_dropShadow_5_4" result="shape"/>
</filter>
<linearGradient id="paint0_linear_5_4" x1="100" y1="0" x2="100" y2="200" gradientUnits="userSpaceOnUse">
<stop stop-color="white"/>
<stop offset="0.505208" stop-color="#FF9345"/>
</linearGradient>
<clipPath id="clip0_5_4">
<rect width="200" height="200" fill="white"/>
</clipPath>
</defs>
</svg>
